<svg width="100%" height="100%" viewBox="0 0 900 500" fill="none" xmlns="http://www.w3.org/2000/svg">
  <defs>
    <linearGradient id="grad2" x1="0" y1="0" x2="1" y2="1">
      <stop offset="0%" stop-color="#0B5FFF" />
      <stop offset="100%" stop-color="#6B2EFF" />
    </linearGradient>
  </defs>
  <rect width="900" height="500" rx="36" fill="#0B5FFF" opacity="0.1" />
  <rect x="60" y="60" width="220" height="140" rx="24" fill="white" opacity="0.82" />
  <rect x="320" y="60" width="220" height="140" rx="24" fill="white" opacity="0.82" />
  <rect x="580" y="60" width="220" height="140" rx="24" fill="white" opacity="0.82" />
  <rect x="60" y="220" width="220" height="140" rx="24" fill="white" opacity="0.82" />
  <rect x="320" y="220" width="220" height="140" rx="24" fill="white" opacity="0.82" />
  <rect x="580" y="220" width="220" height="140" rx="24" fill="white" opacity="0.82" />
  <circle cx="160" cy="130" r="18" fill="url(#grad2)" />
  <circle cx="420" cy="130" r="18" fill="url(#grad2)" />
  <circle cx="680" cy="130" r="18" fill="url(#grad2)" />
  <circle cx="160" cy="290" r="18" fill="url(#grad2)" />
  <circle cx="420" cy="290" r="18" fill="url(#grad2)" />
  <circle cx="680" cy="290" r="18" fill="url(#grad2)" />
  <rect x="120" y="170" width="120" height="18" rx="9" fill="#0B5FFF" opacity="0.95" />
  <rect x="380" y="170" width="120" height="18" rx="9" fill="#0B5FFF" opacity="0.95" />
  <rect x="640" y="170" width="120" height="18" rx="9" fill="#0B5FFF" opacity="0.95" />
  <rect x="120" y="330" width="120" height="18" rx="9" fill="#0B5FFF" opacity="0.95" />
  <rect x="380" y="330" width="120" height="18" rx="9" fill="#0B5FFF" opacity="0.95" />
  <rect x="640" y="330" width="120" height="18" rx="9" fill="#0B5FFF" opacity="0.95" />
</svg>