<svg width="100%" height="100%" viewBox="0 0 900 600" fill="none" xmlns="http://www.w3.org/2000/svg">
  <defs>
    <linearGradient id="bg-grad" x1="0" y1="0" x2="1" y2="1">
      <stop offset="0%" stop-color="#0B5FFF" />
      <stop offset="100%" stop-color="#6B2EFF" />
    </linearGradient>
  </defs>
  <rect width="900" height="600" rx="40" fill="url(#bg-grad)" />
  <circle cx="180" cy="190" r="100" fill="rgba(255,255,255,0.15)" />
  <circle cx="720" cy="130" r="70" fill="rgba(255,255,255,0.18)" />
  <rect x="560" y="290" width="250" height="180" rx="20" fill="rgba(255,255,255,0.12)" />
  <rect x="120" y="340" width="450" height="200" rx="24" fill="rgba(255,255,255,0.16)" />
  <rect x="160" y="380" width="240" height="28" rx="14" fill="white" opacity="0.8" />
  <rect x="160" y="420" width="160" height="20" rx="10" fill="white" opacity="0.65" />
  <rect x="620" y="330" width="180" height="24" rx="12" fill="white" opacity="0.8" />
  <rect x="620" y="370" width="120" height="20" rx="10" fill="white" opacity="0.7" />
  <rect x="620" y="410" width="140" height="20" rx="10" fill="white" opacity="0.7" />
  <path d="M 230 150 C 250 100, 380 100, 400 150" stroke="white" stroke-width="4" stroke-linecap="round" fill="none" opacity="0.8" />
  <path d="M 460 90 C 520 40, 620 40, 680 90" stroke="white" stroke-width="4" stroke-linecap="round" fill="none" opacity="0.55" />
</svg>